<svg width="125" height="124" viewBox="0 0 125 124" fill="none" xmlns="http://www.w3.org/2000/svg">
<path d="M0.333252 62.0001C0.333252 27.7584 28.0916 0 62.3333 0C96.575 0 124.333 27.7584 124.333 62.0001V124H0.333252V62.0001Z" fill="#F3AFA8"/>
<path d="M32.5018 98.0559L39.1 98.0559L39.1 91.2278L32.5018 91.2278L32.5018 98.0559ZM87.4351 42.0452C87.4351 41.5834 87.0733 41.209 86.627 41.209L79.354 41.209C78.9077 41.209 78.5459 41.5834 78.5459 42.0452C78.5459 42.5071 78.9077 42.8815 79.354 42.8815L85.8189 42.8815L85.8189 49.5716C85.8189 50.0335 86.1807 50.4079 86.627 50.4079C87.0733 50.4079 87.4351 50.0335 87.4351 49.5716L87.4351 42.0452ZM36.3723 95.2332L87.1984 42.6366L86.0556 41.4539L35.2295 94.0505L36.3723 95.2332Z" fill="#2D2D2D"/>
</svg>
